<svg width="21" height="19" viewBox="0 0 21 19" fill="none" xmlns="http://www.w3.org/2000/svg">
<path fill-rule="evenodd" clip-rule="evenodd" d="M0.5 0.826087C0.5 0.369852 0.873096 0 1.33333 0H4.66667C5.06385 0 5.40584 0.277883 5.48379 0.663962L6.18369 4.13043H19.6667C19.915 4.13043 20.1504 4.24024 20.3087 4.42994C20.4671 4.61963 20.5318 4.86943 20.4852 5.11127L19.1507 12.0483C19.0364 12.6188 18.7233 13.1313 18.2663 13.496C17.8115 13.8589 17.243 14.0525 16.6595 14.0435H8.57387C7.99031 14.0525 7.42183 13.8589 6.96706 13.496C6.5102 13.1314 6.19719 12.6192 6.08277 12.049C6.08273 12.0488 6.08282 12.0493 6.08277 12.049L4.69066 5.15412C4.68501 5.13132 4.68032 5.10814 4.67663 5.08463L3.9836 1.65217H1.33333C0.873096 1.65217 0.5 1.28232 0.5 0.826087ZM6.51727 5.78261L7.71737 11.7265C7.75547 11.9166 7.85983 12.0874 8.01217 12.209C8.16452 12.3306 8.35515 12.3952 8.5507 12.3915L8.56666 12.3913H16.6667L16.6826 12.3915C16.8782 12.3952 17.0688 12.3306 17.2212 12.209C17.3728 12.088 17.4769 11.9182 17.5154 11.7291L18.6594 5.78261H6.51727ZM6.33333 17.3478C6.33333 16.4354 7.07952 15.6957 8 15.6957C8.92047 15.6957 9.66666 16.4354 9.66666 17.3478C9.66666 18.2603 8.92047 19 8 19C7.07952 19 6.33333 18.2603 6.33333 17.3478ZM15.5 17.3478C15.5 16.4354 16.2462 15.6957 17.1667 15.6957C18.0871 15.6957 18.8333 16.4354 18.8333 17.3478C18.8333 18.2603 18.0871 19 17.1667 19C16.2462 19 15.5 18.2603 15.5 17.3478Z" fill="white"/>
</svg>
